<svg version="1.2" xmlns="http://www.w3.org/2000/svg" viewBox="0 0 1599 1599" width="1599" height="1599">
	<title>WesternUnion_HorizontalLockup_YellowBlack_(1)-svg</title>
	<style>
		.s0 { fill: #ffdd00 } 
		.s1 { fill: #000000 } 
	</style>
	<path id="Layer 1" class="s0" d="m0 0h1599v1599h-1599z"/>
	<g id="#ffdd00ff">
		<path id="Layer" class="s1" d="m0.8 348c131.2-0.2 262.5 0 393.8-0.1 138.2 239 276.4 478.1 414.4 717.2-16.7 28.5-33.1 57.3-49.9 85.8-21.9 36.3-51.5 69.8-90.4 88.3-29.4 14.1-64.1 17.2-95.3 7-36.8-11.3-67-37.7-90-67.8-14.4-18.2-25.2-38.8-36.9-58.7-148.5-257.3-297.3-514.4-445.7-771.7zm523.8 0c131.3-0.1 262.6 0 393.8-0.1 91.9 158.5 183.6 317.1 275.3 475.6 5.8 9.7 10.8 20.1 18.4 28.5 17.7 20.4 47 30.2 73.3 23.2 20.1-4.8 36.8-18.9 47.7-36.1-94.5-163.8-189.2-327.4-283.7-491.1 131.3-0.1 262.5-0.1 393.8 0 50.6 87.9 101.3 175.7 151.9 263.6-103.3 178.9-206.7 357.7-310 536.6-20.4 34.4-47.2 66.2-82.4 86.1-29.5 17.1-65.8 23-98.9 14-37.8-9.8-69.2-35.7-93-65.8-16.7-20.3-28.8-43.7-42-66.3-148-256.1-296.2-512.1-444.2-768.2z"/>
	</g>
</svg>